PathFileType	4	(X/Y/Z)	pose2sim_0-719.trc
DataRate	CameraRate	NumFrames	NumMarkers	Units	OrigDataRate	OrigDataStartFrame	OrigNumFrames
50	50	8	22	m	50	270	720
Frame#	Time	Hip			RHip			RKnee			RAnkle			RBigToe			RSmallToe			RHeel			LHip			LKnee			LAnkle			LBigToe			LSmallToe			LHeel			Neck			Head			Nose			RShoulder			RElbow			RWrist			LShoulder			LElbow			LWrist			
		X1	Y1	Z1	X2	Y2	Z2	X3	Y3	Z3	X4	Y4	Z4	X5	Y5	Z5	X6	Y6	Z6	X7	Y7	Z7	X8	Y8	Z8	X9	Y9	Z9	X10	Y10	Z10	X11	Y11	Z11	X12	Y12	Z12	X13	Y13	Z13	X14	Y14	Z14	X15	Y15	Z15	X16	Y16	Z16	X17	Y17	Z17	X18	Y18	Z18	X19	Y19	Z19	X20	Y20	Z20	X21	Y21	Z21	X22	Y22	Z22	
270	5.4	0.13212564530846804	0.802263803702389	-0.08690442267042643	0.036058348729489424	0.789587598124443	-0.08710729513839507	0.009204186476803166	0.42533362989167317	-0.12454746374741599	0.0004290247963945615	0.07223682249834437	-0.15243408707587192	-0.021097691992077054	0.02948453080484609	-0.00440890577863293	-0.06092037333444125	0.03306737058377264	-0.05998863746684845	0.01474930042431474	0.036489992268908804	-0.1885192005316758	0.2332354649297541	0.7897931003899651	-0.08639617803386886	0.2580443761195191	0.425495580234084	-0.11806639928612257	0.26549846308859026	0.0749815474428046	-0.14527662277381537	0.27616121226337464	0.025412147751560293	0.013228170581190121	0.318895978319729	0.028241589100993458	-0.02785476215083508	0.260667835770177	0.036435610817025794	-0.17659356798862766	0.14137311435273955	1.3563486608512896	-0.07344986562877065	0.136534882222886	1.5724476387802973	-0.033766680252439195	0.11815094081996057	1.4522319568838982	0.039805431590775125	-0.011280399585266561	1.275692482600355	-0.09953412852726964	-0.07233345087746183	1.080883945187833	0.03769622478822306	-0.08665610912139755	1.279510636629582	0.058161214378203895	0.29323329804261306	1.2687317097631103	-0.08807741561605399	0.3293258672589342	1.068472560828001	0.053095371237194745	0.33598731864601383	1.2572283760242042	0.050492187347903894
271	5.42	0.13358308167039223	0.8020374952422048	-0.08749966376323931	0.03477395801927471	0.7886140174555025	-0.09425828766048058	0.010335052767403112	0.4216526252522015	-0.12421277616835649	0.002228066185083389	0.07025766753232628	-0.15579328263394612	-0.02409406619995927	0.030735608073865273	-0.01112647256582848	-0.06418662640571406	0.03289850362438943	-0.06877599056416357	0.01479906676383854	0.03275153191633361	-0.18708253021277754	0.23449461744818592	0.7876999747177043	-0.08811698154726601	0.2576881786993148	0.42559712278608863	-0.11997061038583208	0.26646903923225046	0.07413852936146256	-0.14286371407059945	0.27472740339894136	0.027319722014713527	0.013381655994471421	0.31766954520638335	0.030103305996054562	-0.028046495797597378	0.2590259396764184	0.03540501828564235	-0.18107156042254674	0.14114719187000313	1.3555559864803275	-0.0790924430598638	0.13774261816906552	1.5709405059364727	-0.030898445664441766	0.12040092347986807	1.450713216014552	0.03891858682303634	-0.010176925608020441	1.2751947747780252	-0.09752992701324913	-0.07172078757046554	1.0837433886548948	0.04165946248735467	-0.08905242561530503	1.2829404206301496	0.06253080450231126	0.2943928944469707	1.2683689849033586	-0.08938879764186532	0.335776937509078	1.0684598269238579	0.055230480488679366	0.3419309633492812	1.256734013142418	0.05655857764588477
272	5.44	0.13355670878094494	0.8041983227009933	-0.08122644060146475	0.03378056053017535	0.7897480607837564	-0.08087085264740505	0.00966486695046463	0.42292135189965746	-0.11932275444700324	0.0028793298120160164	0.06722018914470933	-0.15594174737051245	-0.026308368954504287	0.029491848718363793	0.016494387002084186	-0.06239390279363322	0.027986984168828017	-0.043059278686524455	0.01237145208600757	0.024061071712713884	-0.19212475830217102	0.23055817345452712	0.7871967356282369	-0.07768002076834855	0.2545191553007116	0.42365816154366814	-0.11355407759936363	0.2632718236536287	0.07062528620619349	-0.14605358394269943	0.2653285207018001	0.029340955347687925	0.02699040074675227	0.30007693581589023	0.02918513862893154	-0.014655753535973533	0.2579559647768547	0.03229977187125958	-0.17528326787661608	0.14133494143829387	1.3589056281751677	-0.08407663979896658	0.13912658013087878	1.5735485386772672	-0.02925288906869771	0.12452575838543986	1.4479452834900732	0.041991123133637856	-0.012026665790958799	1.2709832438726574	-0.11430180211006082	-0.06454280460288528	1.0784258207608337	0.05150914966687156	-0.08565361013870296	1.2855591790468244	0.07686004153880276	0.2958796970284314	1.2643466765594142	-0.08959493039255081	0.33203803794112663	1.0741460361046338	0.06822658269232074	0.3198978856402767	1.2656288289622977	0.10340702857743286
273	5.46	0.13252272579246988	0.8025230992675314	-0.08363451676553577	0.036158100694876315	0.789786677094821	-0.08860967991338488	0.009593374336762453	0.42372709950366366	-0.12668258580410244	0.0027221000767678246	0.0703857814807246	-0.15425851732198193	-0.0184785493900781	0.029635673932260083	-0.013815828705622767	-0.0598101631283247	0.03171564304118946	-0.06986480477403809	0.012885578492720757	0.031466119837284215	-0.18732242219992218	0.2350609499841707	0.7890050633482171	-0.08740860429734408	0.25709198890001667	0.42398696144253917	-0.11860574519806692	0.2650679268998633	0.07593860385874517	-0.14439926478062534	0.2751954763750609	0.023781163776946678	0.01410111651782055	0.3168087312074469	0.029494193583759536	-0.03171401645901966	0.2578340883516475	0.03612715211725386	-0.1823746286099149	0.14054052810890558	1.3569326820122403	-0.08097189193830029	0.13820322397291673	1.5725097282811538	-0.03588592308071361	0.11801605238597272	1.4520805083737653	0.0328221871014168	-0.011149119747824081	1.275143422728144	-0.10293821579328717	-0.07594783676748715	1.084982609448596	0.042973891099548515	-0.09291868458229813	1.279368720893204	0.07588192823901306	0.2949615931061879	1.2681608848722432	-0.09224888221003605	0.33696404623294984	1.0707249172538502	0.046702380000800674	0.34082213995153987	1.2593069035122835	0.06958284007997748
274	5.48	0.13180006880235248	0.8017850130184947	-0.08351580243781109	0.03422893873494767	0.7881942324208018	-0.09231258573711783	0.010314286564997596	0.4248884027597856	-0.12454691431433232	0.0004909549303133619	0.07230802497397527	-0.15771002874230935	-0.020284109990229515	0.029973262251888635	-0.008053309064677942	-0.05848197331270181	0.032064007056768866	-0.06683807692964651	0.013194082105111356	0.03729883673471535	-0.18625476772706998	0.2316537196621329	0.7862016437780046	-0.09132872488800799	0.2576603319694699	0.42402786576670604	-0.12098086189084298	0.2663520195305504	0.07483423513855075	-0.14465573527693126	0.2756104976242634	0.02650343944997033	0.01016209139625749	0.31947068867492345	0.029785584741479753	-0.02784643503176748	0.26012075799214324	0.037517898538782415	-0.1793420273776444	0.14082599596260692	1.3556693911138489	-0.08545203778203861	0.13992996441179242	1.569926524520534	-0.03739241092625346	0.12113970519455958	1.4517230980873217	0.04673161241505166	-0.01075524452310719	1.2748442161397462	-0.10242413307925213	-0.07762685335321995	1.0855655321990976	0.043445830593444604	-0.09170648083924507	1.2804057921672887	0.08203867469814621	0.29163398690432624	1.2671988905120741	-0.09606875066290534	0.33793995752644146	1.074126909148507	0.05589949096123763	0.34614439085843424	1.2589544286414602	0.07461894045711473
275	5.5	0.13035739206824445	0.8017869619155166	-0.08766273340676574	0.03562668939906475	0.7869244479897237	-0.09048704150273719	0.008914179357802124	0.42249155209306843	-0.12689940539169106	0.0008681301943583406	0.06966889772516899	-0.15244369998124893	-0.0214287139088989	0.026750481850952818	-0.014055652610072128	-0.062490375187727404	0.03011216640585412	-0.06852875144565769	0.01476392901736285	0.03237567589998099	-0.185591473275882	0.232587046806912	0.7874685816074443	-0.09561822852590411	0.2568702081863619	0.42428459563925686	-0.1252703625552497	0.2631019641045205	0.07634261434475917	-0.1441437667658891	0.27515945434770306	0.023251569383082062	0.010207879664568301	0.3177921172999238	0.030065893081193826	-0.035697710930694675	0.2558206985238333	0.03777946600637825	-0.17582314455110437	0.1394053593599999	1.354744380799895	-0.08232618418427612	0.13861747950472167	1.5716305512796915	-0.03987969766895908	0.12110152127400109	1.4527533434929891	0.04575462351030753	-0.011501026232200465	1.2755706643171658	-0.10492742014440616	-0.07667896820309905	1.0877075801101321	0.041197417042362273	-0.0959347369689783	1.2813590481518033	0.09057267753310301	0.28993980965893024	1.2668212925415674	-0.10351756550304653	0.33859338023251045	1.075029794648783	0.04495019791889412	0.3484736765927917	1.2633539762368216	0.08093730108176574
276	5.52	0.13145053470032025	0.8036052473977914	-0.08612336811369721	0.03605606703978969	0.7892425576357566	-0.08800660682431452	0.00805518149922375	0.42570768335109244	-0.12387529999416433	0.002381539653479075	0.0667723412483035	-0.15613628691381332	-0.021152747319792088	0.028948782490388632	0.0049171775962370545	-0.058150539269875956	0.029566973823943982	-0.049764249343294105	0.013240373981074428	0.025606280034620354	-0.19394296965100064	0.2318743700087726	0.7867416206388926	-0.08570635831387385	0.2564010360359244	0.4273200098952452	-0.11911072984892407	0.2654985942551851	0.073669992706053	-0.1516656189139593	0.2677381581330277	0.03103351512226275	0.023238773906503814	0.3081524986716391	0.02968805962130038	-0.024682333804795478	0.2580381800303496	0.03381622208121207	-0.184663424902818	0.1393792679473868	1.3578441446670586	-0.08760919779944185	0.1425828857241888	1.5735137861266304	-0.03950956881754887	0.12603254712087475	1.4532360512930997	0.04362866226051334	-0.013808065518660593	1.2682516936838546	-0.10719898947246069	-0.06963669794721776	1.0760613628813605	0.05887353616065919	-0.09388356245369897	1.2778168148585853	0.1031868145931939	0.2882271428320671	1.26285539995432	-0.0955148474246555	0.33831565511436945	1.0738455500576853	0.0639456794948297	0.3288804363965221	1.264567967073759	0.1223715743747011
277	5.54	0.13046037237152786	0.8045434037751047	-0.0893939933121164	0.035435245299745725	0.7905384538698561	-0.09085790167515104	0.010040643217468493	0.42594056212201853	-0.12512878370031716	-0.0008203482948597663	0.07189916604359828	-0.15387780450581973	-0.018699127163952233	0.029448835787828663	-0.010141960746411716	-0.05961538621158718	0.03289583892372414	-0.05731956642359549	0.012046708876659906	0.03566912487328873	-0.18422800900883365	0.23307092881209132	0.7886186111116419	-0.0933858804171792	0.25660485612468664	0.42660649633360437	-0.12005626562632758	0.26396076823538545	0.07732563074087498	-0.14266765272300272	0.27418138430030636	0.024182893240840567	0.009427831174207828	0.3156675933039403	0.02978931227989685	-0.032711960561459676	0.2596554195060923	0.037252516371346196	-0.17656281456704365	0.14104820025562886	1.356244345690397	-0.0820955925436187	0.1376977642692109	1.5725042281061143	-0.04545775505065833	0.11982837716901909	1.45312066354949	0.03636150155499636	-0.009443697251072353	1.2763748921814857	-0.10037822786643057	-0.07617029930711655	1.0894642809322144	0.04474654441004361	-0.1022653575028918	1.2804178742611478	0.10136483893530018	0.2931129585145892	1.2660893925710055	-0.09722223733737753	0.3400570100872869	1.0740311620167013	0.036437210250147296	0.34906689728465984	1.2640675735533295	0.10915365732610982
